<svg xmlns="http://www.w3.org/2000/svg" width="300" height="64"><defs><linearGradient id="b" x1="0%" x2="100%" y1="0%" y2="100%"><stop offset="0%" stop-color="#0b0d16"/><stop offset="100%" stop-color="#171a2b"/></linearGradient><linearGradient id="d" x1="0%" x2="100%" y1="0%" y2="100%"><stop offset="0%" stop-color="#4f46e5" stop-opacity=".4"/><stop offset="50%" stop-color="#3b82f6" stop-opacity=".2"/><stop offset="100%" stop-color="#06b6d4" stop-opacity=".4"/></linearGradient><radialGradient id="c" cx="50%" cy="0%" r="80%"><stop offset="0%" stop-color="#3b82f6" stop-opacity=".15"/><stop offset="100%" stop-color="#3b82f6" stop-opacity="0"/></radialGradient><filter id="a" width="120%" height="120%" x="-10%" y="-10%"><feDropShadow dx="0" dy="4" flood-color="#000" flood-opacity=".25" stdDeviation="4"/></filter></defs><g filter="url(#a)"><rect width="298" height="62" x="1" y="1" fill="url(#b)" rx="16"/><rect width="298" height="62" x="1" y="1" fill="url(#c)" rx="16"/><rect width="298" height="62" x="1" y="1" fill="none" stroke="url(#d)" stroke-width="1.2" rx="16"/></g><g stroke="#fff" transform="translate(20 16)"><circle cx="16" cy="16" r="14" fill="#fff" fill-opacity=".06" stroke-opacity=".12" stroke-width="1.2"/><g fill="none" stroke-linecap="round" stroke-linejoin="round" stroke-opacity=".9" stroke-width="1.833"><path d="M14.33 16.829a4.165 4.165 0 0 0 6.28.45l2.5-2.5a4.165 4.165 0 0 0-5.89-5.888l-1.432 1.424"/><path d="M17.662 15.163a4.165 4.165 0 0 0-6.28-.45l-2.5 2.5a4.165 4.165 0 0 0 5.89 5.888l1.424-1.424"/></g></g><text x="68" y="38" fill="#fff" font-family="system-ui, -apple-system, BlinkMacSystemFont, 'Segoe UI', Roboto, sans-serif" font-size="18" font-weight="600" letter-spacing="-.01em">Interactive Demo</text><path fill="none" stroke="#fff" stroke-linecap="round" stroke-linejoin="round" stroke-opacity=".4" stroke-width="2" d="m268 28 4 4-4 4"/></svg>