<svg xmlns="http://www.w3.org/2000/svg" xmlns:xlink="http://www.w3.org/1999/xlink" width="16.13ex" height="3.271ex" style="vertical-align:-.188ex" viewBox="0 -1121.4 4752 1445.4"><defs><path id="a" d="M124 129c0 24 5 57 15 98h49c65 0 115 8 151 23 33 14 55 34 66 59 7 17 10 33 10 46 0 55-52 87-108 87q-58.5 0-117-30C113 372 46 281 46 171 46 69 105-11 204-11c53 0 100 13 141 38q51 31.5 75 63c7 9 10 16 10 19 0 11-5 17-16 17-5 0-10-4-16-12-33-44-74-72-121-84-31-8-54-12-71-12-57 0-82 54-82 111m251 226c0-66-64-99-193-99h-35c19 66 47 110 85 131 30 17 55 26 75 26 36 0 68-22 68-58"/><path id="b" d="M284 621c0 27-13 40-40 40-28 0-56-28-56-56 0-27 14-40 41-40 28 0 55 28 55 56m-25-483c-22-79-54-119-95-119-13 0-20 9-20 28 0 17 29 103 88 259q12 34.5 12 54c0 49-34 85-83 85-43 0-77-25-102-76q-30-61.5-30-81c0-9 5-13 16-13 13 0 15 6 19 20 23 80 54 120 94 120 13 0 20-9 20-28 0-14-3-30-10-49-23-63-47-130-67-183-15-40-23-67-23-81 0-49 36-85 84-85q64.5 0 102 75c19 39 29 66 29 81 0 9-5 14-16 14-3 0-18-9-18-21"/><path id="c" d="M524 431H194c-41 0-77-16-106-47-14-15-61-79-61-92 4-7 4-13 16-13 7 0 13 4 19 13 32 49 73 74 122 74h51c-23-87-65-194-125-321-5-12-8-21-8-26 0-20 11-30 32-30 19 0 33 11 42 32 18 57 31 101 38 131l55 214h103c-27-119-41-202-41-249 0-49 11-128 48-128 21 0 44 20 44 41 0 5-2 13-6 23-19 47-28 100-28 161 0 47 6 98 17 152h109c35 0 52 12 52 37 0 23-18 28-43 28"/><path id="d" d="M698 274H413v285q0 24-24 24t-24-24V274H80q-24 0-24-24t24-24h285V-59q0-24 24-24t24 24v285h285q24 0 24 24c0 13-11 24-24 24"/><path id="e" d="M269 666q-61.5-63-180-63v-39c52 0 95 8 128 24V82c0-18-4-30-13-35s-34-8-74-8H95V0q37.5 3 162 3t162-3v39h-35c-41 0-66 3-74 8s-13 17-13 35v554c0 24-2 30-28 30"/><path id="f" d="M698 367H80c-16 0-24-8-24-23s8-23 24-23h618c16 0 24 8 24 23 0 12-11 23-24 23m0-188H80c-16 0-24-8-24-23s8-23 24-23h618c16 0 24 8 24 23 0 13-11 23-24 23"/><path id="g" d="M249-22c141 0 211 114 211 342 0 153-32 255-95 305-35 27-74 41-115 41-141 0-211-115-211-346C39 136 88-22 249-22m112 546c7-35 10-99 10-192 0-92-4-160-11-204Q340.5 8 249 8c-23 0-46 9-67 26-27 23-43 70-50 142-3 25-4 77-4 156 0 87 3 148 8 181 9 55 27 90 55 105 22 12 41 18 58 18 65 0 101-53 112-112"/></defs><g fill="currentColor" stroke="currentColor" stroke-width="0" data-latex="e^{i\pi} + 1 = 0" data-mml-node="math"><g data-latex="e^{i\pi}" data-mml-node="msup"><use xlink:href="#a" data-c="1D452" data-latex="e" data-mml-node="mi" transform="scale(1 -1)"/><g data-latex="{i\pi}" data-mjx-texclass="ORD" data-mml-node="TeXAtom"><use xlink:href="#b" data-c="1D456" data-latex="i" data-mml-node="mi" transform="matrix(.707 0 0 -.707 499 -413)"/><use xlink:href="#c" data-c="1D70B" data-latex="\pi" data-mml-node="mi" transform="matrix(.707 0 0 -.707 742.915 -413)"/></g></g><use xlink:href="#d" data-c="2B" data-latex="+" data-mml-node="mo" transform="matrix(1 0 0 -1 1418.2 0)"/><use xlink:href="#e" data-c="31" data-latex="1" data-mml-node="mn" transform="matrix(1 0 0 -1 2418.4 0)"/><use xlink:href="#f" data-c="3D" data-latex="=" data-mml-node="mo" transform="matrix(1 0 0 -1 3196.2 0)"/><use xlink:href="#g" data-c="30" data-latex="0" data-mml-node="mn" transform="matrix(1 0 0 -1 4252 0)"/></g></svg>