<svg xmlns="http://www.w3.org/2000/svg" xmlns:xlink="http://www.w3.org/1999/xlink" width="22.898ex" height="7.127ex" style="vertical-align:-1.602ex" viewBox="0 -1917 6747 3150"><defs><path id="a" d="M780 657c3 7 5 12 5 14 0 8-9 12-26 12H73c-17 0-26-4-26-13L387-13c7-13 16-20 29-20s22 7 29 20m0 85L179 605h531Z"/><path id="b" d="M630 32c0 7-2 12-7 17L422 250l201 201c5 5 7 10 7 17 0 13-10 23-23 23-7 0-12-2-17-7L389 283 188 484c-5 5-10 7-17 7-13 0-23-10-23-23 0-7 2-12 7-17l201-201L155 49c-5-5-7-10-7-17 0-13 10-23 23-23 7 0 12 2 17 7l201 201L590 16c5-5 10-7 17-7 13 0 23 10 23 23"/><path id="c" d="M723 274h-47C654 136 626 47 441 47H289v282h55c96 0 106-43 106-117h47v281h-47c0-74-9-117-106-117h-55v257h152c161 0 187-73 203-194h47l-31 241H39v-47h108V47H39V0h638Z"/><path id="d" d="M698 367H80c-16 0-24-8-24-23s8-23 24-23h618c16 0 24 8 24 23 0 12-11 23-24 23m0-188H80c-16 0-24-8-24-23s8-23 24-23h618c16 0 24 8 24 23 0 13-11 23-24 23"/><path id="e" d="M698 270H80c-16 0-24-7-24-20s8-20 24-20h618c16 0 24 7 24 20 0 12-12 20-24 20"/><path id="f" d="M256 574c0 23-15 36-44 38 31 47 76 71 135 71 92 0 137-77 137-175 0-41-8-91-23-152-17 69-60 104-127 104-77 0-144-32-204-94S40 235 40 158c0-37 13-75 39-113 31-45 79-67 146-67 90 0 165 42 224 127 56 82 117 224 117 351 0 71-18 131-54 179-39 54-94 81-163 81-67 0-117-23-151-70-27-37-41-67-41-90q0-39 42-39c30 0 57 27 57 57m183-271c0-63-19-125-58-186-43-69-94-103-153-103-66 0-104 43-104 107q0 42 21 117c14 50 28 85 43 106 40 57 89 86 146 86 73 0 105-54 105-127"/><path id="g" d="M753 186c0 96-86 163-205 172 108 19 173 79 173 156 0 92-87 172-248 172H39v-47h108V47H39V0h464c166 0 250 88 250 186M579 514c0-77-48-139-145-139H278v264h182c101 0 119-79 119-125m27-327c0-12 0-140-144-140H278v292h194c20 0 67 0 101-43 33-42 33-98 33-109"/><path id="h" d="M330 419c0 9-10 14-31 14h-81q39 156 39 162c0 21-11 31-32 31-23 0-37-13-43-39l-37-154H56c-22 0-33-1-33-22 0-11 10-16 31-16h81C86 200 62 97 62 84c0-56 38-95 94-95 38 0 71 17 100 52 24 29 41 57 52 84 4 11 6 17 6 20 0 9-5 14-15 14-8 0-14-5-18-16-34-83-75-124-124-124-17 0-26 14-26 41 0 15 2 31 6 47l71 288h89c26 0 33 2 33 24"/></defs><g fill="currentColor" stroke="currentColor" stroke-width="0" data-latex="\nabla \times \mathbf{E} = -\frac{\partial \mathbf{B}}{\partial t}" data-mml-node="math"><use xlink:href="#a" data-c="2207" data-latex="\nabla" data-mml-node="mi" transform="scale(1 -1)"/><use xlink:href="#b" data-c="D7" data-latex="\times" data-mml-node="mo" transform="matrix(1 0 0 -1 1055.2 0)"/><g data-latex="\mathbf{E}" data-mjx-texclass="ORD" data-mml-node="TeXAtom"><use xlink:href="#c" data-c="1D404" data-latex="E" data-mml-node="mi" transform="matrix(1 0 0 -1 2055.4 0)"/></g><use xlink:href="#d" data-c="3D" data-latex="=" data-mml-node="mo" transform="matrix(1 0 0 -1 3089.2 0)"/><use xlink:href="#e" data-c="2212" data-latex="-" data-mml-node="mo" transform="matrix(1 0 0 -1 4145 0)"/><g data-latex="\frac{\partial \mathbf{B}}{\partial t}" data-mml-node="mfrac"><g data-latex="\partial \mathbf{B}" data-mml-node="mrow"><use xlink:href="#f" data-c="1D715" data-latex="\partial" data-mml-node="mi" transform="matrix(1 0 0 -1 5143 -676)"/><g data-latex="\mathbf{B}" data-mjx-texclass="ORD" data-mml-node="TeXAtom"><use xlink:href="#g" data-c="1D401" data-latex="B" data-mml-node="mi" transform="matrix(1 0 0 -1 5709 -676)"/></g></g><g data-latex="\partial t" data-mml-node="mrow"><use xlink:href="#f" data-c="1D715" data-latex="\partial" data-mml-node="mi" transform="matrix(1 0 0 -1 5371.5 686)"/><use xlink:href="#h" data-c="1D461" data-latex="t" data-mml-node="mi" transform="matrix(1 0 0 -1 5937.5 686)"/></g><path stroke="none" d="M5043-220h1584v-60H5043z"/></g></g></svg>