<svg xmlns="http://www.w3.org/2000/svg" xmlns:xlink="http://www.w3.org/1999/xlink" width="31.152ex" height="7.939ex" style="vertical-align:-1.577ex" viewBox="0 -2227 9178 3509"><defs><path id="a" d="M527 373c0 46-45 69-95 69-43 0-77-23-103-69-21 46-56 69-107 69-49 0-89-23-121-68-27-39-41-68-41-87 0-9 5-14 15-14 9 0 15 5 17 14 19 58 61 126 128 126 33 0 49-21 49-62 0-21-18-99-53-233-17-67-47-100-90-100-14 0-27 3-38 8q39 15 39 54c0 26-13 39-40 39-33 0-58-28-58-61 0-46 47-69 96-69 42 0 76 23 103 69 19-46 55-69 107-69 48 0 88 23 120 68 27 39 41 68 41 87 0 9-5 14-15 14-9 0-14-5-17-14-17-57-62-126-127-126-33 0-50 20-50 61 0 13 5 41 16 86l34 135c19 75 50 113 94 113 14 0 27-3 38-8-27-9-40-27-40-54 0-26 14-39 41-39 32 0 57 29 57 61"/><path id="b" d="M698 367H80c-16 0-24-8-24-23s8-23 24-23h618c16 0 24 8 24 23 0 12-11 23-24 23m0-188H80c-16 0-24-8-24-23s8-23 24-23h618c16 0 24 8 24 23 0 13-11 23-24 23"/><path id="c" d="M698 270H80c-16 0-24-7-24-20s8-20 24-20h618c16 0 24 7 24 20 0 12-12 20-24 20"/><path id="d" d="M281 445c-36 0-72-17-107-51l69 285c-2 9-5 15-17 15-33 0-106-9-119-10-15-2-23-9-23-24 0-10 9-15 28-15s45 1 45-13c0-4-5-24-14-61L63 249c-11-42-16-76-16-101C47 62 93-11 175-11c65 0 122 33 172 100 45 62 68 127 68 194 0 87-51 162-134 162m-2-30c39 0 58-30 58-89q0-40.5-18-108c-22-85-51-143-86-174-20-17-39-25-58-25-41 0-61 32-61 96q0 33 15 99l22 90c3 15 8 26 14 34 39 51 77 77 114 77"/><path id="e" d="M698-37H413v263h285q24 0 24 24t-24 24H413v285q0 24-24 24t-24-24V274H80q-24 0-24-24t24-24h285V-37H80c-16 0-24-8-24-23q0-24 24-24h618q24 0 24 24c0 12-11 23-24 23"/><path id="f" d="M847-2q6 13.5 6 18 0 24-24 24c-9 0-16-4-20-13-143-286-214-430-214-432v-1c0-7-68-152-205-437L217-461c-5 11-10 16-16 16-3 0-9-3-17-9l-98-74c-9-7-13-12-13-17 0-10 5-15 14-15 3 0 8 3 16 9l48 35 194-427c5-11 12-17 22-17 12 0 20 5 25 14Z"/><path id="g" d="M237 666c-51 0-94-18-131-54s-56-78-56-129c0-34 25-59 56-59 30 0 55 26 55 56 0 33-24 56-56 56-3 0-5 0-7-1 19 49 63 92 126 92 82 0 128-71 128-157 0-67-34-139-102-215L62 43C49 28 50 29 50 0h371l29 180h-33c-8-51-15-80-21-89-5-5-35-7-90-7H139l97 95c68 64 154 133 183 186q30 52.5 30 105c0 118-92 196-212 196"/><path id="h" d="M353 677c-9 0-17-5-23-14L28 199v-36h261V81c0-18-4-30-11-35s-26-7-59-7h-25V0c29 2 75 3 137 3s108-1 137-3v39h-25c-33 0-52 2-59 7s-11 17-11 35v82h98v39h-98v458c0 10-7 17-20 17m-58-124V202H67Z"/><path id="i" d="M498 144c0 9-5 14-16 14-8 0-14-7-17-21-20-79-44-119-71-119-17 0-26 14-26 42 0 13 4 37 13 72l57 225c5 19 7 30 7 35q0 30-33 30c-21 0-35-12-42-35-21 37-51 55-89 55-65 0-122-33-172-99-46-62-69-126-69-193C40 63 91-11 175-11c43 0 85 23 125 69 11-38 45-69 92-69 69 0 90 81 106 155M341 374c9-21 14-35 14-44 0-4-1-9-2-16l-49-192c-3-11-10-23-19-35q-55.5-69-108-69c-39 0-59 30-59 89q0 36 18 108c21 85 51 142 88 173 20 17 39 25 58 25 27 0 47-13 59-39"/><path id="j" d="M328 325c0-25 13-38 40-38 36 0 59 31 59 67 0 56-59 88-119 88-69 0-132-30-186-89S41 229 41 159c0-98 65-170 163-170 53 0 100 13 141 38q51 31.5 75 63c7 9 10 16 10 19 0 11-5 17-16 17-5 0-10-4-16-12-33-44-74-72-121-84-31-8-54-12-71-12-57 0-85 35-85 104 0 62 29 152 53 195 24 44 75 96 134 96 38 0 64-11 78-32-31-3-58-23-58-56"/></defs><g fill="currentColor" stroke="currentColor" stroke-width="0" data-latex="x = \frac{-b \pm \sqrt{b^2 - 4ac}}{2a}" data-mml-node="math"><use xlink:href="#a" data-c="1D465" data-latex="x" data-mml-node="mi" transform="scale(1 -1)"/><use xlink:href="#b" data-c="3D" data-latex="=" data-mml-node="mo" transform="matrix(1 0 0 -1 849.8 0)"/><g data-latex="\frac{-b \pm \sqrt{b^2 - 4ac}}{2a}" data-mml-node="mfrac"><g data-latex="-b \pm \sqrt{b^2 - 4ac}" data-mml-node="mrow"><use xlink:href="#c" data-c="2212" data-latex="-" data-mml-node="mo" transform="matrix(1 0 0 -1 2125.6 -676)"/><use xlink:href="#d" data-c="1D44F" data-latex="b" data-mml-node="mi" transform="matrix(1 0 0 -1 2903.6 -676)"/><use xlink:href="#e" data-c="B1" data-latex="\pm" data-mml-node="mo" transform="matrix(1 0 0 -1 3554.8 -676)"/><g data-latex="\sqrt{b^2 - 4ac}" data-mml-node="msqrt"><use xlink:href="#f" data-c="221A" data-mml-node="mo" transform="matrix(1 0 0 -1 4555 -1542)"/><g data-latex="b^2" data-mml-node="msup"><use xlink:href="#d" data-c="1D44F" data-latex="b" data-mml-node="mi" transform="matrix(1 0 0 -1 5408 -676)"/><use xlink:href="#g" data-c="32" data-latex="2" data-mml-node="mn" transform="matrix(.707 0 0 -.707 5870 -965)"/></g><use xlink:href="#c" data-c="2212" data-latex="-" data-mml-node="mo" transform="matrix(1 0 0 -1 6495.8 -676)"/><use xlink:href="#h" data-c="34" data-latex="4" data-mml-node="mn" transform="matrix(1 0 0 -1 7496 -676)"/><use xlink:href="#i" data-c="1D44E" data-latex="a" data-mml-node="mi" transform="matrix(1 0 0 -1 7996 -676)"/><use xlink:href="#j" data-c="1D450" data-latex="c" data-mml-node="mi" transform="matrix(1 0 0 -1 8525 -676)"/><path stroke="none" d="M5408-1522h3550v-60H5408z"/></g></g><g data-latex="2a" data-mml-node="mrow"><use xlink:href="#g" data-c="32" data-latex="2" data-mml-node="mn" transform="matrix(1 0 0 -1 5027.3 686)"/><use xlink:href="#i" data-c="1D44E" data-latex="a" data-mml-node="mi" transform="matrix(1 0 0 -1 5527.3 686)"/></g><path stroke="none" d="M2025.6-220H9058v-60H2025.6z"/></g></g></svg>