<svg xmlns="http://www.w3.org/2000/svg" xmlns:xlink="http://www.w3.org/1999/xlink" width="63.203ex" height="8.348ex" style="vertical-align:-2.149ex" viewBox="0 -2124.9 18623.6 3689.9"><defs><path id="a" d="M284 621c0 27-13 40-40 40-28 0-56-28-56-56 0-27 14-40 41-40 28 0 55 28 55 56m-25-483c-22-79-54-119-95-119-13 0-20 9-20 28 0 17 29 103 88 259q12 34.5 12 54c0 49-34 85-83 85-43 0-77-25-102-76q-30-61.5-30-81c0-9 5-13 16-13 13 0 15 6 19 20 23 80 54 120 94 120 13 0 20-9 20-28 0-14-3-30-10-49-23-63-47-130-67-183-15-40-23-67-23-81 0-49 36-85 84-85q64.5 0 102 75c19 39 29 66 29 81 0 9-5 14-16 14-3 0-18-9-18-21"/><path id="b" d="M225 632c0-3-1-9-2-16l-13-52h-48c-12 0-19-6-22-17-3-13 2-20 15-20h46L77 32c-1-3-1-8-2-13 0-20 10-30 31-30 22 0 36 10 41 31l42 171c13 51 27 104 43 132 37 61 79 92 127 92 27 0 41-20 41-61 0-38-19-110-56-217-11-30-16-52-16-65 0-47 31-83 78-83 66 0 109 77 125 137 3 11 4 17 4 19 0 9-6 14-19 14-9 0-16-7-20-20-23-80-53-120-88-120-11 0-17 8-17 24 0 17 6 41 17 73q60 166.5 60 222c0 71-35 107-106 107-21 0-40-4-59-12-21-9-43-23-65-44l35 138h115c12 0 19 6 22 18 4 13-1 19-15 19H282l25 100c1 6 2 11 3 14 0 11-6 16-18 16-7 0-12-1-16-2l-97-8c-17-1-26-10-26-25 0-9 9-14 27-14 19 0 45 1 45-13"/><path id="c" d="M256 574c0 23-15 36-44 38 31 47 76 71 135 71 92 0 137-77 137-175 0-41-8-91-23-152-17 69-60 104-127 104-77 0-144-32-204-94S40 235 40 158c0-37 13-75 39-113 31-45 79-67 146-67 90 0 165 42 224 127 56 82 117 224 117 351 0 71-18 131-54 179-39 54-94 81-163 81-67 0-117-23-151-70-27-37-41-67-41-90q0-39 42-39c30 0 57 27 57 57m183-271c0-63-19-125-58-186-43-69-94-103-153-103-66 0-104 43-104 107q0 42 21 117c14 50 28 85 43 106 40 57 89 86 146 86 73 0 105-54 105-127"/><path id="d" d="M330 419c0 9-10 14-31 14h-81q39 156 39 162c0 21-11 31-32 31-23 0-37-13-43-39l-37-154H56c-22 0-33-1-33-22 0-11 10-16 31-16h81C86 200 62 97 62 84c0-56 38-95 94-95 38 0 71 17 100 52 24 29 41 57 52 84 4 11 6 17 6 20 0 9-5 14-15 14-8 0-14-5-18-16-34-83-75-124-124-124-17 0-26 14-26 41 0 15 2 31 6 47l71 288h89c26 0 33 2 33 24"/><path id="e" d="M341 134V82c0-13-1-21-4-26-5-11-33-17-86-17h-37V0q40.5 3 171 3c88 0 145-1 172-3v39h-37c-53 0-81 5-86 16-3 5-4 14-4 27v52c149 19 223 114 223 285 0 13 2 32 7 57 5 30 20 47 44 50 11 1 16 6 16 15s-9 14-28 14h-37c-20 0-36-4-49-11-28-18-42-66-43-143-1-132-46-210-133-234v434c0 13 1 21 4 26 5 11 33 17 86 17h37v39q-40.5-3-171-3c-88 0-145 1-172 3v-39h37c53 0 81-5 86-16 3-5 4-14 4-27V167c-85 25-127 107-127 246 0 95-31 142-92 142H86c-19 0-29-5-29-14q0-12 12-15c12-1 21-5 28-10 18-14 27-54 27-121 0-147 85-242 217-261"/><path id="f" d="M318-248c9 0 14 5 14 14 0 3-2 7-5 11-52 40-94 106-125 197-27 79-41 157-41 234v84c0 77 14 155 41 234 31 91 73 157 125 197 3 3 5 7 5 11 0 9-5 14-14 14-1 0-4-1-7-3-60-46-110-114-151-205-39-87-59-169-59-248v-84c0-79 20-161 59-248 41-91 91-159 151-205 3-2 6-3 7-3"/><path id="g" d="M527 373c0 46-45 69-95 69-43 0-77-23-103-69-21 46-56 69-107 69-49 0-89-23-121-68-27-39-41-68-41-87 0-9 5-14 15-14 9 0 15 5 17 14 19 58 61 126 128 126 33 0 49-21 49-62 0-21-18-99-53-233-17-67-47-100-90-100-14 0-27 3-38 8q39 15 39 54c0 26-13 39-40 39-33 0-58-28-58-61 0-46 47-69 96-69 42 0 76 23 103 69 19-46 55-69 107-69 48 0 88 23 120 68 27 39 41 68 41 87 0 9-5 14-15 14-9 0-14-5-17-14-17-57-62-126-127-126-33 0-50 20-50 61 0 13 5 41 16 86l34 135c19 75 50 113 94 113 14 0 27-3 38-8-27-9-40-27-40-54 0-26 14-39 41-39 32 0 57 29 57 61"/><path id="h" d="M139 106c-32 0-53-24-53-56 0-30 23-55 53-55 14 0 26 4 35 13l1-8c0-63-21-117-63-160-7-8-11-14-11-18 0-10 4-15 13-15s21 12 38 35c34 48 51 101 51 158 0 53-18 106-64 106"/><path id="i" d="M78-245c60 46 110 114 151 205 39 87 59 169 59 248v84c0 79-20 161-59 248-41 91-91 159-151 205-3 2-6 3-7 3-9 0-14-5-14-14 0-4 2-8 5-11 52-40 94-106 125-197 27-79 41-157 41-234v-84c0-77-14-155-41-234-31-91-73-157-125-197-3-4-5-8-5-11 0-9 5-14 14-14 1 0 4 1 7 3"/><path id="j" d="M698 367H80c-16 0-24-8-24-23s8-23 24-23h618c16 0 24 8 24 23 0 12-11 23-24 23m0-188H80c-16 0-24-8-24-23s8-23 24-23h618c16 0 24 8 24 23 0 13-11 23-24 23"/><path id="k" d="M477-884H297v2268h180c21 0 32 11 32 33s-11 33-32 33H233V-950h244c21 0 32 11 32 33 0 18-14 33-32 33"/><path id="l" d="M698 270H80c-16 0-24-7-24-20s8-20 24-20h618c16 0 24 7 24 20 0 12-12 20-24 20"/><path id="m" d="M237 666c-51 0-94-18-131-54s-56-78-56-129c0-34 25-59 56-59 30 0 55 26 55 56 0 33-24 56-56 56-3 0-5 0-7-1 19 49 63 92 126 92 82 0 128-71 128-157 0-67-34-139-102-215L62 43C49 28 50 29 50 0h371l29 180h-33c-8-51-15-80-21-89-5-5-35-7-90-7H139l97 95c68 64 154 133 183 186q30 52.5 30 105c0 118-92 196-212 196"/><path id="n" d="M657 442c-61 0-114-30-159-89-9 59-47 89-115 89-59 0-110-26-152-79-8 44-43 79-94 79-41 0-71-33-92-98-11-32-16-51-16-57 0-9 5-14 16-14 5 0 8 1 11 3 5 9 8 16 10 23 18 76 41 114 68 114q27 0 27-42c0-13-5-40-16-81L88 63c-4-12-9-38-9-44 0-20 11-30 32-30 20 0 34 10 41 30 1 5 8 30 19 73l21 89 30 114c11 23 28 46 50 70q43.5 48 108 48c33 0 49-22 49-65q0-19.5-15-81l-27-114c-7-29-23-89-31-121-1-7-2-11-2-13q0-30 33-30c11 0 19 3 26 10 15 15 16 22 22 49l59 237c3 13 17 36 41 68 30 40 70 60 119 60 33 0 49-22 49-65 0-39-20-112-61-219-9-23-13-42-13-55 0-49 37-85 85-85 45 0 79 25 104 75 20 40 30 67 30 80 0 9-5 14-16 14-7-1-14-10-19-21-22-79-54-119-97-119-13 0-20 10-20 29 0 15 6 37 18 68 41 107 61 180 61 218 0 71-47 109-118 109"/><path id="o" d="M698 274H413v285q0 24-24 24t-24-24V274H80q-24 0-24-24t24-24h285V-59q0-24 24-24t24 24v285h285q24 0 24 24c0 13-11 24-24 24"/><path id="p" d="M671 680c-19 0-79 3-98 3-15 0-23-8-23-23 0-10 7-15 20-16 28-1 42-11 42-28 0-9-5-21-14-36L300 107l-66 512c0 17 21 25 64 25 20 0 29 7 29 24q0 15-18 15c-22 0-100-3-122-3-20 0-88 3-108 3-15 0-23-8-23-23 0-11 10-16 29-16 17 0 29-2 37-4 16-5 15-7 18-26L218 4c3-17 11-26 24-26s23 7 31 20l356 566c23 36 45 59 67 68 15 7 34 11 56 12 11 1 16 8 17 23 1 11-5 16-17 16-15 0-66-3-81-3"/><path id="q" d="M51-950h244v2400H51c-21 0-32-11-32-33s11-33 32-33h180V-884H51c-21 0-32-11-32-33s11-33 32-33"/></defs><g fill="currentColor" stroke="currentColor" stroke-width="0" data-latex="i\hbar\frac{\partial}{\partial t}\Psi(x,t) = \left[-\frac{\hbar^2}{2m}\frac{\partial^2}{\partial x^2} + V(x)\right]\Psi(x,t)" data-mml-node="math"><use xlink:href="#a" data-c="1D456" data-latex="i" data-mml-node="mi" transform="scale(1 -1)"/><use xlink:href="#b" data-c="210F" data-latex="\hbar" data-mml-node="mi" transform="matrix(1 0 0 -1 345 0)"/><g data-latex="\frac{\partial}{\partial t}" data-mml-node="mfrac"><use xlink:href="#c" data-c="1D715" data-latex="\partial" data-mml-node="mi" transform="matrix(1 0 0 -1 1280.5 -676)"/><g data-latex="\partial t" data-mml-node="mrow"><use xlink:href="#c" data-c="1D715" data-latex="\partial" data-mml-node="mi" transform="matrix(1 0 0 -1 1100 686)"/><use xlink:href="#d" data-c="1D461" data-latex="t" data-mml-node="mi" transform="matrix(1 0 0 -1 1666 686)"/></g><path stroke="none" d="M1000-220h1127v-60H1000z"/></g><use xlink:href="#e" data-c="3A8" data-latex="\Psi" data-mml-node="mi" transform="matrix(1 0 0 -1 2247 0)"/><use xlink:href="#f" data-c="28" data-latex="(" data-mml-node="mo" transform="matrix(1 0 0 -1 3025 0)"/><use xlink:href="#g" data-c="1D465" data-latex="x" data-mml-node="mi" transform="matrix(1 0 0 -1 3414 0)"/><use xlink:href="#h" data-c="2C" data-latex="," data-mml-node="mo" transform="matrix(1 0 0 -1 3986 0)"/><use xlink:href="#d" data-c="1D461" data-latex="t" data-mml-node="mi" transform="matrix(1 0 0 -1 4430.7 0)"/><use xlink:href="#i" data-c="29" data-latex=")" data-mml-node="mo" transform="matrix(1 0 0 -1 4791.7 0)"/><use xlink:href="#j" data-c="3D" data-latex="=" data-mml-node="mo" transform="matrix(1 0 0 -1 5458.4 0)"/><g data-latex="\left[-\frac{\hbar^2}{2m}\frac{\partial^2}{\partial x^2} + V(x)\right]" data-mml-node="mrow"><use xlink:href="#k" data-c="5B" data-latex="\left[" data-mml-node="mo" transform="matrix(1 0 0 -1 6514.2 0)"/><use xlink:href="#l" data-c="2212" data-latex="-" data-mml-node="mo" transform="matrix(1 0 0 -1 7042.2 0)"/><g data-latex="\frac{\hbar^2}{2m}" data-mml-node="mfrac"><g data-latex="\hbar^2" data-mml-node="msup"><use xlink:href="#b" data-c="210F" data-latex="\hbar" data-mml-node="mi" transform="matrix(1 0 0 -1 8217.8 -676)"/><use xlink:href="#m" data-c="32" data-latex="2" data-mml-node="mn" transform="matrix(.707 0 0 -.707 8837 -1039)"/></g><g data-latex="2m" data-mml-node="mrow"><use xlink:href="#m" data-c="32" data-latex="2" data-mml-node="mn" transform="matrix(1 0 0 -1 8040.2 686)"/><use xlink:href="#n" data-c="1D45A" data-latex="m" data-mml-node="mi" transform="matrix(1 0 0 -1 8540.2 686)"/></g><path stroke="none" d="M7940.2-220h1578v-60h-1578z"/></g><g data-latex="\frac{\partial^2}{\partial x^2}" data-mml-node="mfrac"><g data-latex="\partial^2" data-mml-node="msup"><use xlink:href="#c" data-c="1D715" data-latex="\partial" data-mml-node="mi" transform="matrix(1 0 0 -1 10118.3 -676)"/><use xlink:href="#m" data-c="32" data-latex="2" data-mml-node="mn" transform="matrix(.707 0 0 -.707 10769.1 -1039)"/></g><g data-latex="\partial x^2" data-mml-node="mrow"><use xlink:href="#c" data-c="1D715" data-latex="\partial" data-mml-node="mi" transform="matrix(1 0 0 -1 9858.2 719.9)"/><g data-latex="x^2" data-mml-node="msup"><use xlink:href="#g" data-c="1D465" data-latex="x" data-mml-node="mi" transform="matrix(1 0 0 -1 10424.2 719.9)"/><use xlink:href="#m" data-c="32" data-latex="2" data-mml-node="mn" transform="matrix(.707 0 0 -.707 11029.2 430.9)"/></g></g><path stroke="none" d="M9758.2-220h1774.6v-60H9758.2z"/></g><use xlink:href="#o" data-c="2B" data-latex="+" data-mml-node="mo" transform="matrix(1 0 0 -1 11875 0)"/><use xlink:href="#p" data-c="1D449" data-latex="V" data-mml-node="mi" transform="matrix(1 0 0 -1 12875.2 0)"/><use xlink:href="#f" data-c="28" data-latex="(" data-mml-node="mo" transform="matrix(1 0 0 -1 13645.2 0)"/><use xlink:href="#g" data-c="1D465" data-latex="x" data-mml-node="mi" transform="matrix(1 0 0 -1 14034.2 0)"/><use xlink:href="#i" data-c="29" data-latex=")" data-mml-node="mo" transform="matrix(1 0 0 -1 14606.2 0)"/><use xlink:href="#q" data-c="5D" data-latex="\right]" data-mml-node="mo" transform="matrix(1 0 0 -1 14995.2 0)"/></g><use xlink:href="#e" data-c="3A8" data-latex="\Psi" data-mml-node="mi" transform="matrix(1 0 0 -1 15689.9 0)"/><use xlink:href="#f" data-c="28" data-latex="(" data-mml-node="mo" transform="matrix(1 0 0 -1 16467.9 0)"/><use xlink:href="#g" data-c="1D465" data-latex="x" data-mml-node="mi" transform="matrix(1 0 0 -1 16856.9 0)"/><use xlink:href="#h" data-c="2C" data-latex="," data-mml-node="mo" transform="matrix(1 0 0 -1 17428.9 0)"/><use xlink:href="#d" data-c="1D461" data-latex="t" data-mml-node="mi" transform="matrix(1 0 0 -1 17873.6 0)"/><use xlink:href="#i" data-c="29" data-latex=")" data-mml-node="mo" transform="matrix(1 0 0 -1 18234.6 0)"/></g></svg>