<svg xmlns="http://www.w3.org/2000/svg" viewBox="0 0 400 260"><defs><linearGradient id="b" x1="0%" x2="0%" y1="100%" y2="0%"><stop offset="0%" stop-color="#ff7e40"/><stop offset="100%" stop-color="#ff2e93"/></linearGradient><linearGradient id="a" x1="0%" x2="0%" y1="100%" y2="0%"><stop offset="0%" stop-color="#d9541a"/><stop offset="100%" stop-color="#d91672"/></linearGradient><filter id="c" width="140%" height="140%" x="-20%" y="-20%"><feDropShadow dx="0" dy="4" flood-color="#ff5e00" flood-opacity=".25" stdDeviation="6"/></filter></defs><path stroke="#f1f5f9" stroke-dasharray="4,4" d="M30 40h340M30 120h340"/><path fill="#ff9d66" d="m63 183 8-6h36l-8 6z"/><path fill="url(#a)" d="m99 183 8-6v17l-8 6z"/><path fill="url(#b)" d="M63 183h36v17H63z" filter="url(#c)"/><path fill="#ff3e00" d="m85 163.3 1.9 3.8 4.2.6-3 3 .7 4.2-3.8-2-3.8 2 .7-4.2-2.9-3 4.1-.6Z"/><text x="85" y="155" fill="#ff3e00" font-family="-apple-system, BlinkMacSystemFont, 'Segoe UI', Roboto, sans-serif" font-size="12" font-weight="700" text-anchor="middle">3.50 KB</text><text x="85" y="222" fill="#ff3e00" font-family="-apple-system, BlinkMacSystemFont, 'Segoe UI', Roboto, sans-serif" font-size="13" font-weight="700" text-anchor="middle">@webc.site/math</text><text x="85" y="238" fill="#94a3b8" font-family="-apple-system, BlinkMacSystemFont, 'Segoe UI', Roboto, sans-serif" font-size="11" font-weight="500" text-anchor="middle">v0.1.31</text><path fill="#e2e8f0" d="m178 122 8-6h36l-8 6z"/><path fill="#94a3b8" d="m214 122 8-6v78l-8 6z"/><path fill="#cbd5e1" d="M178 122h36v78h-36z"/><text x="200" y="110" fill="#64748b" font-family="-apple-system, BlinkMacSystemFont, 'Segoe UI', Roboto, sans-serif" font-size="11" font-weight="700" text-anchor="middle">21.4x</text><text x="200" y="94" fill="#64748b" font-family="-apple-system, BlinkMacSystemFont, 'Segoe UI', Roboto, sans-serif" font-size="12" font-weight="600" text-anchor="middle">75.15 KB</text><text x="200" y="222" fill="#475569" font-family="-apple-system, BlinkMacSystemFont, 'Segoe UI', Roboto, sans-serif" font-size="13" font-weight="600" text-anchor="middle">KaTeX</text><text x="200" y="238" fill="#94a3b8" font-family="-apple-system, BlinkMacSystemFont, 'Segoe UI', Roboto, sans-serif" font-size="11" font-weight="500" text-anchor="middle">v0.17.0</text><path fill="#cbd5e1" d="m293 50 8-6h36l-8 6z"/><path fill="#64748b" d="m329 50 8-6v150l-8 6z"/><path fill="#94a3b8" d="M293 50h36v150h-36z"/><text x="315" y="38" fill="#64748b" font-family="-apple-system, BlinkMacSystemFont, 'Segoe UI', Roboto, sans-serif" font-size="11" font-weight="700" text-anchor="middle">79.5x</text><text x="315" y="22" fill="#64748b" font-family="-apple-system, BlinkMacSystemFont, 'Segoe UI', Roboto, sans-serif" font-size="12" font-weight="600" text-anchor="middle">278.39 KB</text><text x="315" y="222" fill="#475569" font-family="-apple-system, BlinkMacSystemFont, 'Segoe UI', Roboto, sans-serif" font-size="13" font-weight="600" text-anchor="middle">MathJax</text><text x="315" y="238" fill="#94a3b8" font-family="-apple-system, BlinkMacSystemFont, 'Segoe UI', Roboto, sans-serif" font-size="11" font-weight="500" text-anchor="middle">v4.1.2</text></svg>